PathFileType	4	(X/Y/Z)	C:/Users/opensim2020/Desktop/walking_exp_matlab/subject03_walking09_straight_02.trc																																																																																																																																											
DataRate	CameraRate	NumFrames	NumMarkers	Units	OrigDataRate	OrigDataStartFrame	OrigNumFrames																																																																																																																																							
100	100	7	47	mm	100	1972	364																																																																																																																																							
Frame#	Time	LFHD			RFHD			LBHD			RBHD			C7			T10			CLAV			STRN			RBAK			LSHO			LUPA			LELB			LFRM			LWRA			LWRB			LFIN			RSHO			RUPA			RELB			RFRM			RWRA			RWRB			RFIN			LASI			RASI			LPSI			RPSI			LTHI			LKNE			LTIB			LANK			LHEE			LTOE			RTHI			RKNE			RTIB			RANK			RHEE			RTOE			*39			*40			*41			*42			*43			*44			*45			*46		
		X1	Y1	Z1	X2	Y2	Z2	X3	Y3	Z3	X4	Y4	Z4	X5	Y5	Z5	X6	Y6	Z6	X7	Y7	Z7	X8	Y8	Z8	X9	Y9	Z9	X10	Y10	Z10	X11	Y11	Z11	X12	Y12	Z12	X13	Y13	Z13	X14	Y14	Z14	X15	Y15	Z15	X16	Y16	Z16	X17	Y17	Z17	X18	Y18	Z18	X19	Y19	Z19	X20	Y20	Z20	X21	Y21	Z21	X22	Y22	Z22	X23	Y23	Z23	X24	Y24	Z24	X25	Y25	Z25	X26	Y26	Z26	X27	Y27	Z27	X28	Y28	Z28	X29	Y29	Z29	X30	Y30	Z30	X31	Y31	Z31	X32	Y32	Z32	X33	Y33	Z33	X34	Y34	Z34	X35	Y35	Z35	X36	Y36	Z36	X37	Y37	Z37	X38	Y38	Z38	X39	Y39	Z39	X40	Y40	Z40	X41	Y41	Z41	X42	Y42	Z42	X43	Y43	Z43	X44	Y44	Z44	X45	Y45	Z45	X46	Y46	Z46	X47	Y47	Z47
																																																																																																																																														
137	1.36	-572.55017	1629.93835	-1492.90417	-594.45209	1632.35986	-1362.37488	-694.65369	1572.67334	-1508.37292	-711.19452	1575.45618	-1379.14685	-720.07733	1418.8031	-1452.9032	-748.32806	1106.29138	-1458.53577	-596.53119	1344.54712	-1441.3739	-551.35022	1180.50342	-1447.19519	-778.03491	1242.99158	-1363.89624	-623.04675	1384.93799	-1598.31055	-606.78479	1190.05457	-1667.87524	-584.74133	1068.34424	-1676.9458	-538.83624	946.83612	-1671.65759	-502.24414	834.75745	-1636.00537	-522.62097	834.54718	-1688.35156	-494.52274	755.17657	-1674.63171	-655.56854	1362.87073	-1286.60144	-650.6792	1137.03369	-1223.17212	-633.21936	1026.18713	-1210.84448	-616.15948	890.19006	-1207.62976	-580.00348	794.61304	-1237.98267	-618.53925	790.05688	-1199.5332	-595.92786	718.27734	-1205.88879	-574.69128	940.06598	-1565.97363	-582.57758	947.34418	-1327.29419	-736.79053	967.27435	-1520.72888	-741.28656	975.99487	-1372.42993	-657.14453	638.6095	-1613.70276	-678.92249	459.78607	-1592.53601	-825.12604	319.56174	-1589.9364	-955.79913	156.24838	-1547.28577	-1006.14398	157.65755	-1509.15588	-871.1452	34.1811	-1504.98938	-612.56409	652.27393	-1291.05432	-571.08154	475.75562	-1327.90515	-587.34668	287.64752	-1325.94604	-571.03851	72.05168	-1375.05554	-608.83331	39.16941	-1429.01404	-426.3884	37.36415	-1386.53613	-668.37531	1681.73523	-1455.92224	NaN	NaN	NaN	NaN	NaN	NaN	NaN	NaN	NaN	NaN	NaN	NaN	NaN	NaN	NaN	NaN	NaN	NaN	NaN	NaN	NaN
138	1.37	-565.40771	1630.49109	-1491.8844	-586.98651	1632.71509	-1361.26074	-687.46704	1573.07629	-1506.99683	-703.56885	1575.67505	-1377.6731	-712.3584	1418.89233	-1451.44434	-740.37518	1106.53064	-1456.61304	-588.67639	1344.98804	-1440.36023	-543.2229	1180.78967	-1446.26111	-769.54626	1243.18176	-1362.05151	-615.59955	1385.38733	-1597.11267	-600.49445	1190.42542	-1666.96875	-580.36401	1068.66235	-1676.55701	-535.85614	946.40692	-1671.73999	-500.51324	833.28442	-1636.77942	-521.41064	833.74847	-1688.95935	-495.40363	753.40045	-1675.59119	-647.14093	1363.41943	-1285.50439	-641.55737	1137.78613	-1221.32764	-624.08411	1026.99487	-1208.78247	-606.83752	891.00165	-1205.28906	-571.21387	795.27332	-1235.93457	-609.14355	790.93756	-1196.90881	-586.44037	718.98999	-1203.41797	-567.23853	940.49976	-1564.64978	-574.45007	947.20355	-1326.21265	-729.45105	967.61609	-1519.06958	-733.10797	976.6087	-1370.66797	-645.6004	637.91724	-1614.11011	-663.74091	458.62109	-1593.75647	-811.57581	320.86832	-1590.47461	-945.89832	161.17976	-1547.94995	-995.57422	165.21452	-1509.10388	-868.67096	34.05316	-1505.76465	-607.89532	652.14923	-1289.58875	-567.49707	475.38904	-1327.25977	-584.9939	287.59567	-1325.55322	-570.55164	71.84187	-1375.34412	-608.71136	39.2393	-1429.19702	-426.04794	37.1893	-1386.65955	-661.1507	1682.33081	-1454.55005	NaN	NaN	NaN	NaN	NaN	NaN	NaN	NaN	NaN	NaN	NaN	NaN	NaN	NaN	NaN	NaN	NaN	NaN	NaN	NaN	NaN
139	1.38	-558.28076	1630.79773	-1490.84143	-579.45721	1632.9043	-1360.18579	-680.27972	1573.24597	-1505.65417	-696.00537	1575.7605	-1376.32581	-704.64355	1418.88049	-1450.04468	-732.55359	1106.59143	-1454.63623	-580.82086	1345.19495	-1439.4696	-535.16754	1181.00098	-1445.37695	-761.12274	1243.05469	-1360.27344	-608.2594	1385.5824	-1596.07703	-594.27856	1190.37512	-1666.11829	-574.81836	1068.24133	-1675.49084	-532.59882	945.5069	-1671.86145	-498.6066	831.70673	-1637.68005	-520.18561	832.64038	-1689.59155	-496.05591	751.4657	-1676.51172	-638.67609	1363.6311	-1284.35632	-632.50311	1138.23767	-1219.49512	-615.00531	1027.521	-1206.61658	-597.29059	891.55011	-1202.92249	-561.17474	796.0556	-1233.21924	-599.36749	791.55707	-1194.23108	-576.64771	719.42993	-1201.005	-560.05896	940.53497	-1563.60254	-566.46777	946.76868	-1325.19128	-722.39301	967.53955	-1517.45032	-725.12067	977.06329	-1368.98511	-634.07739	637.03284	-1614.41821	-648.44873	457.42719	-1594.54199	-797.31305	321.76895	-1590.62463	-935.22839	165.76775	-1548.26526	-984.39948	172.43788	-1509.05591	-864.50031	35.4149	-1507.31812	-602.37982	652.19568	-1288.58545	-563.38507	475.17041	-1326.1106	-582.44226	287.47409	-1325.16785	-570.15839	71.74596	-1375.53137	-608.58612	39.25468	-1429.34753	-425.78119	37.0298	-1386.80005	-653.89734	1682.27246	-1453.29004	NaN	NaN	NaN	NaN	NaN	NaN	NaN	NaN	NaN	NaN	NaN	NaN	NaN	NaN	NaN	NaN	NaN	NaN	NaN	NaN	NaN
140	1.39	-551.1167	1630.98169	-1489.91138	-571.97302	1633.026	-1359.1958	-673.05908	1573.20471	-1504.36084	-688.47217	1575.56567	-1374.98755	-696.89551	1418.74866	-1448.62146	-724.7995	1106.49536	-1452.72314	-573.0639	1345.23779	-1438.60254	-527.45245	1180.87061	-1444.6228	-752.9115	1242.83191	-1358.61023	-600.95868	1385.3656	-1595.12378	-588.23779	1190.00806	-1665.27673	-570.1947	1067.86035	-1675.32874	-529.26056	944.37457	-1672.02295	-496.70752	829.87372	-1638.61047	-518.5976	831.36029	-1690.31799	-496.44791	749.47638	-1677.47131	-630.31165	1363.55884	-1283.22815	-623.59924	1138.40552	-1217.64319	-605.91998	1027.73083	-1204.46704	-587.69446	891.85675	-1200.55835	-551.41919	796.4068	-1230.87256	-589.48389	791.82928	-1191.48889	-566.54578	719.75598	-1198.54578	-553.25513	940.30603	-1562.68652	-558.65234	946.18695	-1324.28442	-715.65521	967.10919	-1515.99536	-717.44928	977.35309	-1367.401	-622.70288	635.95966	-1614.42126	-633.48938	456.34973	-1595.40015	-783.09528	322.56351	-1591.07715	-923.86792	170.16945	-1547.58044	-973.03772	178.70406	-1508.34998	-857.40796	37.8539	-1510.01074	-598.35278	652.45197	-1286.7218	-559.29333	474.99994	-1325.1886	-579.78314	287.45895	-1324.66479	-569.90265	71.71922	-1375.66577	-608.5365	39.29939	-1429.41455	-425.60205	36.9223	-1386.89868	-646.72852	1682.26892	-1451.85022	NaN	NaN	NaN	NaN	NaN	NaN	NaN	NaN	NaN	NaN	NaN	NaN	NaN	NaN	NaN	NaN	NaN	NaN	NaN	NaN	NaN
141	1.4	-543.95679	1631.10645	-1489.05762	-564.54425	1633.04907	-1358.26245	-666.29034	1573.23083	-1503.77283	-680.83032	1575.24841	-1373.50452	-689.39661	1418.89343	-1447.53552	-717.22266	1106.32275	-1450.92627	-565.4115	1345.06067	-1437.77063	-519.9646	1180.54309	-1444.02051	-744.74841	1242.49817	-1356.97314	-593.77563	1384.97241	-1594.33582	-582.26215	1189.35486	-1664.56934	-565.0592	1067.11304	-1674.99268	-525.8772	943.00946	-1672.22717	-494.71378	827.97229	-1639.46594	-516.91577	829.90814	-1691.09399	-496.53372	747.40332	-1678.34155	-621.97174	1363.27393	-1282.17407	-614.74176	1138.34387	-1215.80017	-596.81067	1027.68542	-1202.37573	-577.95782	891.98376	-1198.18884	-541.50995	796.63953	-1228.53564	-579.16467	791.90289	-1188.98962	-556.12701	719.73114	-1196.00049	-546.60089	939.81665	-1562.005	-551.01202	945.78851	-1323.52686	-709.03583	966.28131	-1514.70361	-710.11658	977.57111	-1366.01599	-611.39929	635.008	-1614.26526	-617.72003	455.18085	-1595.23779	-768.58875	323.47046	-1591.20105	-912.82593	174.92403	-1547.39587	-961.3606	183.72803	-1506.97803	-847.6665	40.55088	-1513.98523	-592.1546	652.58466	-1286.0542	-555.17804	474.87311	-1324.58337	-577.1543	287.41995	-1324.0564	-569.70514	71.70702	-1375.76074	-608.53619	39.34272	-1429.44336	-425.42868	36.81188	-1386.9292	-639.69733	1682.34668	-1450.80029	NaN	NaN	NaN	NaN	NaN	NaN	NaN	NaN	NaN	NaN	NaN	NaN	NaN	NaN	NaN	NaN	NaN	NaN	NaN	NaN	NaN
142	1.41	-536.84369	1631.20129	-1488.25464	-557.01318	1633.03174	-1357.40833	-659.46906	1572.94373	-1503.01855	-673.20715	1574.84802	-1372.31091	-681.63269	1418.88416	-1446.2627	-709.7948	1106.1709	-1449.27417	-557.82397	1344.84973	-1437.04089	-512.65356	1180.16174	-1443.43787	-736.87726	1242.30396	-1355.40649	-586.76062	1384.34155	-1593.63293	-576.39221	1188.49817	-1663.93042	-560.11194	1066.20544	-1674.58899	-522.47162	941.53406	-1672.42798	-492.83203	826.18225	-1640.35657	-515.0495	828.39044	-1691.79907	-496.17093	745.42377	-1679.26135	-613.54126	1362.81067	-1281.09607	-605.85559	1138.10254	-1214.05933	-587.70215	1027.53308	-1200.2146	-568.04462	891.91351	-1195.91589	-531.55029	796.65631	-1226.35352	-568.66455	791.84027	-1186.55481	-545.45685	719.94012	-1193.65283	-540.13312	939.10278	-1561.49316	-543.2998	945.43848	-1322.50928	-702.59497	965.3175	-1513.59485	-703.11853	977.78998	-1364.88147	-600.33618	634.18237	-1614.12085	-602.39404	454.392	-1595.34912	-754.19745	324.81772	-1590.8009	-900.41144	178.89549	-1546.63965	-948.88947	187.54175	-1505.33521	-835.97333	43.49645	-1518.51758	-586.37042	652.86261	-1285.39526	-550.97083	475.1008	-1323.62744	-574.70581	287.43375	-1323.50305	-569.51025	71.64873	-1375.82642	-608.53381	39.38047	-1429.42896	-425.31348	36.7397	-1386.92407	NaN	NaN	NaN	NaN	NaN	NaN	NaN	NaN	NaN	NaN	NaN	NaN	NaN	NaN	NaN	NaN	NaN	NaN	NaN	NaN	NaN	NaN	NaN	NaN
143	1.42	-529.75018	1631.33057	-1487.50134	-549.55231	1633.03467	-1356.60718	-652.25684	1572.66541	-1502.01514	-665.57813	1574.43445	-1371.17041	-674.14801	1419.18604	-1445.25623	-702.63898	1106.17261	-1447.8833	-550.33026	1344.55481	-1436.36621	-505.50967	1179.71533	-1442.98779	-729.26544	1242.39575	-1353.96167	-579.92578	1383.62317	-1593.05603	-570.26996	1187.67151	-1663.79248	-555.20569	1065.18884	-1674.32642	-519.00836	940.00037	-1672.62842	-490.98621	824.14215	-1641.00989	-513.09521	826.88678	-1692.48267	-495.49393	743.60077	-1680.16589	-605.29651	1362.29297	-1280.12256	-597.05719	1137.76758	-1212.37842	-578.44916	1027.27563	-1198.17773	-558.16864	891.72656	-1193.68982	-521.30804	796.7951	-1224.19214	-558.18634	791.73773	-1184.08972	-534.23022	720.04889	-1191.30847	-533.80774	938.40161	-1561.0647	-536.27136	945.36414	-1321.99524	-696.16418	964.27814	-1512.71179	-696.35333	978.0155	-1363.94226	-589.54657	633.93066	-1614.11365	-586.5719	453.93768	-1595.11169	-739.77509	326.58255	-1590.15039	-887.17474	182.18105	-1546.19751	-935.5575	190.22192	-1503.85498	-822.74713	46.3689	-1522.87378	-580.38251	653.16272	-1284.8374	-546.98724	474.89963	-1323.22437	-572.3277	287.36209	-1323.01941	-569.38342	71.71615	-1375.85913	-608.53003	39.42466	-1429.43115	-425.26541	36.68258	-1386.94006	-625.60773	1681.62781	-1448.68518	NaN	NaN	NaN	NaN	NaN	NaN	NaN	NaN	NaN	NaN	NaN	NaN	NaN	NaN	NaN	NaN	NaN	NaN	NaN	NaN	NaN
